# xmcd
#
# Track frame offsets:
#	150
#	24575
#	42210
#	60855
#	76480
#	94328
#	119088
#	139553
#	152373
#	175368
#	190483
#	204788
#	224840
#	247805
#	276175
#	285725
#	298635
#	313150
#	327065
#
# Disc length: 4597 seconds
#
# Revision: 2
# Processed by: cddbd v1.4PL0 Copyright (c) Steve Scherf et al.
# Submitted via: audiograbber 1.80.04
#
DISCID=1811f313
DTITLE=Wolfgang Petry - Alles Live
DYEAR=1900
DGENRE=
TTITLE0=Wieso und Weshalb
TTITLE1=Bronze, Silber und Gold
TTITLE2=Sommer in der Stadt
TTITLE3=Scheissegal
TTITLE4=Ganz oder gar nicht
TTITLE5=Du bist ein Wunder
TTITLE6=Weiss' der Geier
TTITLE7=Denn eines Tages vielleicht
TTITLE8=Weiber
TTITLE9=Der Himmel brennt
TTITLE10=Sehnsucht nach dir
TTITLE11=Sieben Tage, Sieben Nächte
TTITLE12=Wahnsinn
TTITLE13=Verlieben, Verloren ...
TTITLE14=Gianna
TTITLE15=Jessica
TTITLE16=Augen zu und durch
TTITLE17=Ruhrgebiet
TTITLE18=Rockin' all over the world
EXTD=
EXTT0=
EXTT1=
EXTT2=
EXTT3=
EXTT4=
EXTT5=
EXTT6=
EXTT7=
EXTT8=
EXTT9=
EXTT10=
EXTT11=
EXTT12=
EXTT13=
EXTT14=
EXTT15=
EXTT16=
EXTT17=
EXTT18=
PLAYORDER=
